<svg version="1.1" id="Calque_1" xmlns="http://www.w3.org/2000/svg" xmlns:xlink="http://www.w3.org/1999/xlink" x="0px" y="0px" width="512px" height="512px" viewBox="0 0 512 512" enable-background="new 0 0 512 512" xml:space="preserve">
<path fill="#000000" d="M430.38,234.93c9.23-6.13,15.34-16.62,15.34-28.51c0-12.34-6.569-23.18-16.399-29.19
	c7.229-6.28,11.819-15.53,11.819-25.83c0-14.31-8.84-26.59-21.34-31.68c5.72-6.12,9.24-14.32,9.24-23.34
	c0-18.86-15.35-34.21-34.21-34.21H169.25c-4.88-0.38-11.04,3.7-18.3,12.17c-3.3,3.85-7.24,5.88-10.51,6.96
	c-0.71-9.11-8.33-16.32-17.62-16.32H83.97c-9.75,0-17.69,7.94-17.69,17.69v182.91c0,9.75,7.94,17.68,17.69,17.68h38.85
	c9.75,0,17.69-7.93,17.69-17.68v-2.061c9.62,0.15,28.91,2.841,39.63,20.711c15.01,25.02,45.53,52.76,63.77,69.329
	c3.07,2.78,5.75,5.23,7.91,7.25c14.22,13.301,30.89,38.58,33.911,62.671c1.689,13.579,10.909,23.479,24.05,25.829
	c2.04,0.37,4.08,0.551,6.109,0.551c13.65,0,26.86-7.98,33.53-20.811c13.91-26.74,14.61-70.479-16.71-103.31
	c-12.91-13.53-11.26-17.9-11.24-17.94c0.17-0.399,2.16-3.88,19.641-3.88h66.26c21.149,0,38.35-17.2,38.35-38.34
	C445.72,253.06,439.691,241.93,430.38,234.93z M127.12,265.58c0,2.37-1.93,4.3-4.3,4.3H83.97c-2.37,0-4.3-1.93-4.3-4.3V82.67
	c0-2.37,1.93-4.3,4.3-4.3h38.85c2.37,0,4.3,1.93,4.3,4.3V265.58z M407.37,290.54h-66.26c-12.48,0-27.4,1.36-31.95,11.99
	c-4.74,11.09,5.64,23.83,13.859,32.45c25.591,26.829,26.671,64.52,14.521,87.899c-5.82,11.2-17.25,14.72-25.4,13.26
	c-4.33-0.779-11.8-3.68-13.13-14.319c-3.439-27.54-21.59-55.4-38.04-70.79c-2.2-2.061-4.94-4.55-8.06-7.38
	c-17.69-16.08-47.29-42.98-61.29-66.311c-14.16-23.6-38.71-27.08-51.11-27.22v-155c5.71-1.23,13.97-4.33,20.61-12.06
	c4.69-5.48,7.34-7.09,8.14-7.5h225.58c11.47,0,20.811,9.34,20.811,20.82s-9.341,20.81-20.811,20.81h-22.77v13.39h34.859
	c11.48,0,20.82,9.34,20.82,20.82s-9.34,20.81-20.82,20.81h-27.989v13.39h27.989c1.561,0,3.09-0.11,4.58-0.31v0.31
	c11.48,0,20.82,9.34,20.82,20.82s-9.34,20.82-20.82,20.82v0.22c-1.359-0.15-2.74-0.22-4.14-0.22h-20.71v13.38h20.71
	c13.77,0,24.96,11.2,24.96,24.96C432.33,279.34,421.14,290.54,407.37,290.54z" id="id_101"></path>
<path fill="#FFFFFF" d="M127.12,82.67v182.91c0,2.37-1.93,4.3-4.3,4.3H83.97c-2.37,0-4.3-1.93-4.3-4.3V82.67
	c0-2.37,1.93-4.3,4.3-4.3h38.85C125.19,78.37,127.12,80.3,127.12,82.67z" id="id_102"></path>
<path fill="#fa054e" d="M432.33,265.58c0,13.76-11.19,24.96-24.96,24.96h-66.26c-12.48,0-27.4,1.36-31.95,11.99
	c-4.74,11.09,5.64,23.83,13.859,32.45c25.591,26.829,26.671,64.52,14.521,87.899c-5.82,11.2-17.25,14.72-25.4,13.26
	c-4.33-0.779-11.8-3.68-13.13-14.319c-3.439-27.54-21.59-55.4-38.04-70.79c-2.2-2.061-4.94-4.55-8.06-7.38
	c-17.69-16.08-47.29-42.98-61.29-66.311c-14.16-23.6-38.71-27.08-51.11-27.22v-155c5.71-1.23,13.97-4.33,20.61-12.06
	c4.69-5.48,7.34-7.09,8.14-7.5h225.58c11.47,0,20.811,9.34,20.811,20.82s-9.341,20.81-20.811,20.81h-22.77v13.39h34.859
	c11.48,0,20.82,9.34,20.82,20.82s-9.34,20.81-20.82,20.81h-27.989v13.39h27.989c1.561,0,3.09-0.11,4.58-0.31v0.31
	c11.48,0,20.82,9.34,20.82,20.82s-9.34,20.82-20.82,20.82v0.22c-1.359-0.15-2.74-0.22-4.14-0.22h-20.71v13.38h20.71
	C421.14,240.62,432.33,251.82,432.33,265.58z" id="id_103"></path>
</svg>